<svg xmlns="http://www.w3.org/2000/svg" width="24" height="24" viewBox="0 0 24 24" fill="none" stroke="#2563eb" stroke-width="2" stroke-linecap="round" stroke-linejoin="round">
  <path d="M2.97 12.92A2 2 0 0 0 2 14.63v3a2 2 0 0 0 2 2h3.39a2 2 0 0 0 1.71-.97l.45-.83a1 1 0 0 1 .875-.5H12"></path>
  <path d="M17.71 4.47A2 2 0 0 0 16 4H8a2 2 0 0 0-2 2v3.35a2 2 0 0 0 .97 1.71l.83.45c.394.212.87.212 1.264 0l.476-.247"></path>
  <path d="M8 14a2 2 0 1 1 0-4"></path>
  <path d="M17 6c-.268 0-.534.01-.797.028l-.763.065c-.606.055-1.082.532-1.14 1.138a12 12 0 0 0 1.067 5.978c.166.414.53.764.963.855 1.65.348 3.394.157 4.476-.625.763-.551 1.57-.9 2.19-1.044.55-.128.943-.615.943-1.175v-1.73a2 2 0 0 0-1.106-1.79l-1.717-.858A2 2 0 0 0 20 6h-3Z"></path>
  <path d="M16 22a2 2 0 1 1 0-4"></path>
</svg>